<svg xmlns="http://www.w3.org/2000/svg" xmlns:xlink="http://www.w3.org/1999/xlink" xmlns:sketch="http://www.bohemiancoding.com/sketch/ns" viewBox="0 0 30 37.5" version="1.1" x="0px" y="0px"><title>weather_012-moon_rise-night-crescent-forecast</title><desc>Created with Sketch.</desc><g stroke="none" stroke-width="1" fill="none" fill-rule="evenodd" sketch:type="MSPage"><g sketch:type="MSArtboardGroup" transform="translate(-540.000000, -45.000000)" fill="#000000"><path d="M553.5,68 C553.667177,68 553.823292,67.9164494 553.916025,67.7773501 L555.498929,65.3997819 L557.083975,67.7773501 C557.176708,67.9164494 557.332823,68 557.5,68 L565.5,68 C565.776142,68 566,67.7761424 566,67.5 C566,67.2238576 565.776142,67 565.5,67 L557.770004,67 L555.916025,64.2226499 C555.718114,63.9257834 555.281886,63.9257834 555.083975,64.2226499 L553.229996,67 L545.5,67 C545.223858,67 545,67.2238576 545,67.5 C545,67.7761424 545.223858,68 545.5,68 L553.5,68 Z M563.885707,61.5613965 C563.979556,61.3016909 563.845102,61.0150784 563.585397,60.9212294 C563.474597,60.8811902 563.3589,60.882706 563.255364,60.9177744 C560.491676,61.5861949 557.458491,60.7565355 555.422351,58.4951729 C553.370515,56.2163787 552.870409,53.0826257 553.854107,50.3899701 C553.876701,50.3053466 553.880482,50.2145686 553.858101,50.124135 C553.79176,49.85608 553.520679,49.6925583 553.252624,49.7588991 C551.830931,50.1107531 550.512296,50.8055119 549.400176,51.8068695 C545.947889,54.9153222 545.46162,60.0893228 548.127972,63.7682648 C548.21672,63.907585 548.372561,64 548.549988,64 C548.82613,64 549.049988,63.7761424 549.049988,63.5 C549.049988,63.3892101 549.013954,63.2868363 548.952968,63.2039588 C546.566526,59.931931 546.994026,55.3190093 550.069306,52.5500143 C550.828038,51.8668494 551.69374,51.3446858 552.625894,50.9973793 C551.942881,53.7921065 552.608943,56.8650428 554.679206,59.1643035 C556.74947,61.4635643 559.73595,62.4471867 562.586762,62.0600438 C562.396505,62.4427326 562.175431,62.8098515 561.924967,63.1583184 C561.84126,63.2477118 561.790009,63.3678707 561.790009,63.5 C561.790009,63.7761424 562.013866,64 562.290009,64 C562.467789,64 562.623898,63.907216 562.712554,63.7674306 C563.208466,63.0914563 563.601087,62.3490174 563.885707,61.5613965 Z" sketch:type="MSShapeGroup"/></g></g><text x="0" y="45" fill="#000000" font-size="5px" font-weight="bold" font-family="'Helvetica Neue', Helvetica, Arial-Unicode, Arial, Sans-serif">Created by Pham Thi Dieu Linh</text><text x="0" y="50" fill="#000000" font-size="5px" font-weight="bold" font-family="'Helvetica Neue', Helvetica, Arial-Unicode, Arial, Sans-serif">from the Noun Project</text></svg>