<svg xmlns="http://www.w3.org/2000/svg" xmlns:xlink="http://www.w3.org/1999/xlink" xmlns:sketch="http://www.bohemiancoding.com/sketch/ns" viewBox="0 0 30 37.5" version="1.1" x="0px" y="0px"><title>weather_011-moon_rise-night-crescent-forecast</title><desc>Created with Sketch.</desc><g stroke="none" stroke-width="1" fill="none" fill-rule="evenodd" sketch:type="MSPage"><g sketch:type="MSArtboardGroup" transform="translate(-495.000000, -45.000000)" fill="#000000"><path d="M508.5,66 C508.667177,66 508.823292,66.0835506 508.916025,66.2226499 L510.498929,68.6002181 L512.083975,66.2226499 C512.176708,66.0835506 512.332823,66 512.5,66 L520.5,66 C520.776142,66 521,66.2238576 521,66.5 C521,66.7761424 520.776142,67 520.5,67 L512.770004,67 L510.916025,69.7773501 C510.718114,70.0742166 510.281886,70.0742166 510.083975,69.7773501 L508.229996,67 L500.5,67 C500.223858,67 500,66.7761424 500,66.5 C500,66.2238576 500.223858,66 500.5,66 L508.5,66 Z M518.885707,61.5613965 C518.979556,61.3016909 518.845102,61.0150784 518.585397,60.9212294 C518.474597,60.8811902 518.3589,60.882706 518.255364,60.9177744 C515.491676,61.5861949 512.458491,60.7565355 510.422351,58.4951729 C508.370515,56.2163787 507.870409,53.0826257 508.854107,50.3899701 C508.876701,50.3053466 508.880482,50.2145686 508.858101,50.124135 C508.79176,49.85608 508.520679,49.6925583 508.252624,49.7588991 C506.830931,50.1107531 505.512296,50.8055119 504.400176,51.8068695 C500.947889,54.9153222 500.46162,60.0893228 503.127972,63.7682648 C503.21672,63.907585 503.372561,64 503.549988,64 C503.82613,64 504.049988,63.7761424 504.049988,63.5 C504.049988,63.3892101 504.013954,63.2868363 503.952968,63.2039588 C501.566526,59.931931 501.994026,55.3190093 505.069306,52.5500143 C505.828038,51.8668494 506.69374,51.3446858 507.625894,50.9973793 C506.942881,53.7921065 507.608943,56.8650428 509.679206,59.1643035 C511.74947,61.4635643 514.73595,62.4471867 517.586762,62.0600438 C517.396505,62.4427326 517.175431,62.8098515 516.924967,63.1583184 C516.84126,63.2477118 516.790009,63.3678707 516.790009,63.5 C516.790009,63.7761424 517.013866,64 517.290009,64 C517.467789,64 517.623898,63.907216 517.712554,63.7674306 C518.208466,63.0914563 518.601087,62.3490174 518.885707,61.5613965 Z" sketch:type="MSShapeGroup"/></g></g><text x="0" y="45" fill="#000000" font-size="5px" font-weight="bold" font-family="'Helvetica Neue', Helvetica, Arial-Unicode, Arial, Sans-serif">Created by Pham Thi Dieu Linh</text><text x="0" y="50" fill="#000000" font-size="5px" font-weight="bold" font-family="'Helvetica Neue', Helvetica, Arial-Unicode, Arial, Sans-serif">from the Noun Project</text></svg>